<svg width="46" height="18" viewBox="0 0 46 18" fill="none" xmlns="http://www.w3.org/2000/svg">
<path d="M6.34375 15.1836L6.89062 14.6641C7 14.5273 7 14.3086 6.89062 14.1992L1.94141 9.25L6.89063 4.27344C7 4.16406 7 3.94531 6.89063 3.80859L6.34375 3.28906C6.20703 3.15234 6.01563 3.15234 5.87891 3.28906L0.136719 9.00391C0.0273438 9.14062 0.0273438 9.33203 0.136719 9.46875L5.87891 15.1836C6.01562 15.3203 6.20703 15.3203 6.34375 15.1836Z" fill="#6780FF"/>
<path d="M20.1904 12.53C20.5404 12.53 20.8344 12.488 21.0724 12.404C21.3104 12.32 21.4994 12.208 21.6394 12.068C21.784 11.928 21.8867 11.7647 21.9474 11.578C22.0127 11.3913 22.0454 11.193 22.0454 10.983C22.0454 10.7637 22.0104 10.5677 21.9404 10.395C21.8704 10.2177 21.7607 10.0683 21.6114 9.947C21.462 9.821 21.2684 9.72533 21.0304 9.66C20.797 9.59467 20.5147 9.562 20.1834 9.562H18.2864V12.53H20.1904ZM18.2864 5.334V8.26H19.7844C20.4284 8.26 20.9137 8.14333 21.2404 7.91C21.5717 7.67667 21.7374 7.30567 21.7374 6.797C21.7374 6.26967 21.588 5.894 21.2894 5.67C20.9907 5.446 20.524 5.334 19.8894 5.334H18.2864ZM19.8894 3.878C20.552 3.878 21.119 3.941 21.5904 4.067C22.0617 4.193 22.4467 4.37267 22.7454 4.606C23.0487 4.83933 23.2704 5.12167 23.4104 5.453C23.5504 5.78433 23.6204 6.15767 23.6204 6.573C23.6204 6.811 23.5854 7.03967 23.5154 7.259C23.4454 7.47367 23.3357 7.67667 23.1864 7.868C23.0417 8.05467 22.855 8.225 22.6264 8.379C22.4024 8.533 22.134 8.66367 21.8214 8.771C23.212 9.08367 23.9074 9.835 23.9074 11.025C23.9074 11.4543 23.8257 11.851 23.6624 12.215C23.499 12.579 23.261 12.894 22.9484 13.16C22.6357 13.4213 22.2507 13.6267 21.7934 13.776C21.336 13.9253 20.8134 14 20.2254 14H16.4034V3.878H19.8894ZM29.0298 10.934C28.5305 10.9573 28.1105 11.0017 27.7698 11.067C27.4292 11.1277 27.1562 11.207 26.9508 11.305C26.7455 11.403 26.5985 11.5173 26.5098 11.648C26.4212 11.7787 26.3768 11.921 26.3768 12.075C26.3768 12.3783 26.4655 12.5953 26.6428 12.726C26.8248 12.8567 27.0605 12.922 27.3498 12.922C27.7045 12.922 28.0102 12.859 28.2668 12.733C28.5282 12.6023 28.7825 12.4063 29.0298 12.145V10.934ZM25.0678 7.819C25.8938 7.063 26.8878 6.685 28.0498 6.685C28.4698 6.685 28.8455 6.755 29.1768 6.895C29.5082 7.03033 29.7882 7.22167 30.0168 7.469C30.2455 7.71167 30.4182 8.00333 30.5348 8.344C30.6562 8.68467 30.7168 9.058 30.7168 9.464V14H29.9328C29.7695 14 29.6435 13.9767 29.5548 13.93C29.4662 13.8787 29.3962 13.7783 29.3448 13.629L29.1908 13.111C29.0088 13.2743 28.8315 13.419 28.6588 13.545C28.4862 13.6663 28.3065 13.769 28.1198 13.853C27.9332 13.937 27.7325 14 27.5178 14.042C27.3078 14.0887 27.0745 14.112 26.8178 14.112C26.5145 14.112 26.2345 14.0723 25.9778 13.993C25.7212 13.909 25.4995 13.7853 25.3128 13.622C25.1262 13.4587 24.9815 13.2557 24.8788 13.013C24.7762 12.7703 24.7248 12.488 24.7248 12.166C24.7248 11.984 24.7552 11.8043 24.8158 11.627C24.8765 11.445 24.9745 11.2723 25.1098 11.109C25.2498 10.9457 25.4295 10.7917 25.6488 10.647C25.8682 10.5023 26.1365 10.3763 26.4538 10.269C26.7758 10.1617 27.1492 10.0753 27.5738 10.01C27.9985 9.94 28.4838 9.898 29.0298 9.884V9.464C29.0298 8.98333 28.9272 8.62867 28.7218 8.4C28.5165 8.16667 28.2202 8.05 27.8328 8.05C27.5528 8.05 27.3195 8.08267 27.1328 8.148C26.9508 8.21333 26.7898 8.288 26.6498 8.372C26.5098 8.45133 26.3815 8.52367 26.2648 8.589C26.1528 8.65433 26.0268 8.687 25.8868 8.687C25.7655 8.687 25.6628 8.65667 25.5788 8.596C25.4948 8.53067 25.4272 8.456 25.3758 8.372L25.0678 7.819ZM37.4902 8.337C37.4389 8.40233 37.3875 8.45367 37.3362 8.491C37.2895 8.52833 37.2195 8.547 37.1262 8.547C37.0375 8.547 36.9512 8.52133 36.8672 8.47C36.7832 8.414 36.6829 8.35333 36.5662 8.288C36.4495 8.218 36.3095 8.15733 36.1462 8.106C35.9875 8.05 35.7892 8.022 35.5512 8.022C35.2479 8.022 34.9819 8.078 34.7532 8.19C34.5245 8.29733 34.3332 8.45367 34.1792 8.659C34.0299 8.86433 33.9179 9.114 33.8432 9.408C33.7685 9.69733 33.7312 10.0263 33.7312 10.395C33.7312 10.7777 33.7709 11.1183 33.8502 11.417C33.9342 11.7157 34.0532 11.9677 34.2072 12.173C34.3612 12.3737 34.5479 12.5277 34.7672 12.635C34.9865 12.7377 35.2339 12.789 35.5092 12.789C35.7845 12.789 36.0062 12.7563 36.1742 12.691C36.3469 12.621 36.4915 12.5463 36.6082 12.467C36.7249 12.383 36.8252 12.3083 36.9092 12.243C36.9979 12.173 37.0959 12.138 37.2032 12.138C37.3432 12.138 37.4482 12.1917 37.5182 12.299L38.0152 12.929C37.8239 13.153 37.6162 13.342 37.3922 13.496C37.1682 13.6453 36.9349 13.7667 36.6922 13.86C36.4542 13.9487 36.2069 14.0117 35.9502 14.049C35.6982 14.0863 35.4462 14.105 35.1942 14.105C34.7509 14.105 34.3332 14.0233 33.9412 13.86C33.5492 13.692 33.2062 13.4493 32.9122 13.132C32.6182 12.8147 32.3849 12.4273 32.2122 11.97C32.0442 11.508 31.9602 10.983 31.9602 10.395C31.9602 9.86767 32.0349 9.38 32.1842 8.932C32.3382 8.47933 32.5622 8.08967 32.8562 7.763C33.1502 7.43167 33.5142 7.17267 33.9482 6.986C34.3822 6.79933 34.8815 6.706 35.4462 6.706C35.9829 6.706 36.4519 6.79233 36.8532 6.965C37.2592 7.13767 37.6232 7.385 37.9452 7.707L37.4902 8.337ZM40.8281 3.598V9.555H41.1501C41.2668 9.555 41.3578 9.541 41.4231 9.513C41.4931 9.48033 41.5631 9.41733 41.6331 9.324L43.4181 7.119C43.4928 7.021 43.5745 6.94633 43.6631 6.895C43.7565 6.84367 43.8755 6.818 44.0201 6.818H45.6021L43.3691 9.485C43.2105 9.695 43.0378 9.856 42.8511 9.968C42.9491 10.038 43.0355 10.1197 43.1101 10.213C43.1895 10.3063 43.2641 10.4067 43.3341 10.514L45.7281 14H44.1671C44.0318 14 43.9151 13.979 43.8171 13.937C43.7191 13.8903 43.6375 13.8087 43.5721 13.692L41.7381 10.969C41.6728 10.8617 41.6051 10.7917 41.5351 10.759C41.4651 10.7263 41.3601 10.71 41.2201 10.71H40.8281V14H39.0991V3.598H40.8281Z" fill="#6780FF"/>
</svg>
