<svg width="93" height="24" viewBox="0 0 93 24" fill="none" xmlns="http://www.w3.org/2000/svg">
<rect width="93" height="24" rx="3" fill="white"/>
<path d="M8.03125 8.01172L8.42188 8.38281C8.5 8.48047 8.5 8.63672 8.42188 8.71484L4.88672 12.25L8.42188 15.8047C8.5 15.8828 8.5 16.0391 8.42188 16.1367L8.03125 16.5078C7.93359 16.6055 7.79688 16.6055 7.69922 16.5078L3.59766 12.4258C3.51953 12.3281 3.51953 12.1914 3.59766 12.0938L7.69922 8.01172C7.79688 7.91406 7.93359 7.91406 8.03125 8.01172Z" fill="#021D2D"/>
<path d="M21.1961 15.576C21.5281 15.576 21.8141 15.538 22.0541 15.462C22.2941 15.386 22.4901 15.28 22.6421 15.144C22.7981 15.004 22.9121 14.84 22.9841 14.652C23.0561 14.46 23.0921 14.25 23.0921 14.022C23.0921 13.578 22.9341 13.228 22.6181 12.972C22.3021 12.712 21.8281 12.582 21.1961 12.582H19.3361V15.576H21.1961ZM19.3361 8.82V11.754H20.8721C21.2001 11.754 21.4841 11.718 21.7241 11.646C21.9681 11.574 22.1681 11.474 22.3241 11.346C22.4841 11.218 22.6021 11.064 22.6781 10.884C22.7541 10.7 22.7921 10.5 22.7921 10.284C22.7921 9.776 22.6401 9.406 22.3361 9.174C22.0321 8.938 21.5601 8.82 20.9201 8.82H19.3361ZM20.9201 7.902C21.4481 7.902 21.9021 7.954 22.2821 8.058C22.6661 8.162 22.9801 8.31 23.2241 8.502C23.4721 8.694 23.6541 8.93 23.7701 9.21C23.8861 9.486 23.9441 9.798 23.9441 10.146C23.9441 10.358 23.9101 10.562 23.8421 10.758C23.7781 10.95 23.6801 11.13 23.5481 11.298C23.4161 11.466 23.2481 11.618 23.0441 11.754C22.8441 11.886 22.6081 11.994 22.3361 12.078C22.9681 12.198 23.4421 12.424 23.7581 12.756C24.0781 13.084 24.2381 13.516 24.2381 14.052C24.2381 14.416 24.1701 14.748 24.0341 15.048C23.9021 15.348 23.7061 15.606 23.4461 15.822C23.1901 16.038 22.8741 16.206 22.4981 16.326C22.1221 16.442 21.6941 16.5 21.2141 16.5H18.1781V7.902H20.9201ZM28.8841 13.764C28.3921 13.78 27.9721 13.82 27.6241 13.884C27.2801 13.944 26.9981 14.024 26.7781 14.124C26.5621 14.224 26.4041 14.342 26.3041 14.478C26.2081 14.614 26.1601 14.766 26.1601 14.934C26.1601 15.094 26.1861 15.232 26.2381 15.348C26.2901 15.464 26.3601 15.56 26.4481 15.636C26.5401 15.708 26.6461 15.762 26.7661 15.798C26.8901 15.83 27.0221 15.846 27.1621 15.846C27.3501 15.846 27.5221 15.828 27.6781 15.792C27.8341 15.752 27.9801 15.696 28.1161 15.624C28.2561 15.552 28.3881 15.466 28.5121 15.366C28.6401 15.266 28.7641 15.152 28.8841 15.024V13.764ZM25.4341 11.28C25.7701 10.956 26.1321 10.714 26.5201 10.554C26.9081 10.394 27.3381 10.314 27.8101 10.314C28.1501 10.314 28.4521 10.37 28.7161 10.482C28.9801 10.594 29.2021 10.75 29.3821 10.95C29.5621 11.15 29.6981 11.392 29.7901 11.676C29.8821 11.96 29.9281 12.272 29.9281 12.612V16.5H29.4541C29.3501 16.5 29.2701 16.484 29.2141 16.452C29.1581 16.416 29.1141 16.348 29.0821 16.248L28.9621 15.672C28.8021 15.82 28.6461 15.952 28.4941 16.068C28.3421 16.18 28.1821 16.276 28.0141 16.356C27.8461 16.432 27.6661 16.49 27.4741 16.53C27.2861 16.574 27.0761 16.596 26.8441 16.596C26.6081 16.596 26.3861 16.564 26.1781 16.5C25.9701 16.432 25.7881 16.332 25.6321 16.2C25.4801 16.068 25.3581 15.902 25.2661 15.702C25.1781 15.498 25.1341 15.258 25.1341 14.982C25.1341 14.742 25.2001 14.512 25.3321 14.292C25.4641 14.068 25.6781 13.87 25.9741 13.698C26.2701 13.526 26.6561 13.386 27.1321 13.278C27.6081 13.166 28.1921 13.102 28.8841 13.086V12.612C28.8841 12.14 28.7821 11.784 28.5781 11.544C28.3741 11.3 28.0761 11.178 27.6841 11.178C27.4201 11.178 27.1981 11.212 27.0181 11.28C26.8421 11.344 26.6881 11.418 26.5561 11.502C26.4281 11.582 26.3161 11.656 26.2201 11.724C26.1281 11.788 26.0361 11.82 25.9441 11.82C25.8721 11.82 25.8101 11.802 25.7581 11.766C25.7061 11.726 25.6621 11.678 25.6261 11.622L25.4341 11.28ZM35.785 11.502C35.753 11.546 35.721 11.58 35.689 11.604C35.657 11.628 35.613 11.64 35.557 11.64C35.497 11.64 35.431 11.616 35.359 11.568C35.287 11.516 35.197 11.46 35.089 11.4C34.985 11.34 34.855 11.286 34.699 11.238C34.547 11.186 34.359 11.16 34.135 11.16C33.835 11.16 33.571 11.214 33.343 11.322C33.115 11.426 32.923 11.578 32.767 11.778C32.615 11.978 32.499 12.22 32.419 12.504C32.343 12.788 32.305 13.106 32.305 13.458C32.305 13.826 32.347 14.154 32.431 14.442C32.515 14.726 32.633 14.966 32.785 15.162C32.941 15.354 33.127 15.502 33.343 15.606C33.563 15.706 33.809 15.756 34.081 15.756C34.341 15.756 34.555 15.726 34.723 15.666C34.891 15.602 35.029 15.532 35.137 15.456C35.249 15.38 35.341 15.312 35.413 15.252C35.489 15.188 35.563 15.156 35.635 15.156C35.723 15.156 35.791 15.19 35.839 15.258L36.139 15.648C36.007 15.812 35.857 15.952 35.689 16.068C35.521 16.184 35.339 16.282 35.143 16.362C34.951 16.438 34.749 16.494 34.537 16.53C34.325 16.566 34.109 16.584 33.889 16.584C33.509 16.584 33.155 16.514 32.827 16.374C32.503 16.234 32.221 16.032 31.981 15.768C31.741 15.5 31.553 15.172 31.417 14.784C31.281 14.396 31.213 13.954 31.213 13.458C31.213 13.006 31.275 12.588 31.399 12.204C31.527 11.82 31.711 11.49 31.951 11.214C32.195 10.934 32.493 10.716 32.845 10.56C33.201 10.404 33.609 10.326 34.069 10.326C34.497 10.326 34.873 10.396 35.197 10.536C35.525 10.672 35.815 10.866 36.067 11.118L35.785 11.502ZM38.3595 7.662V12.864H38.6355C38.7155 12.864 38.7815 12.854 38.8335 12.834C38.8895 12.81 38.9475 12.764 39.0075 12.696L40.9275 10.638C40.9835 10.57 41.0415 10.518 41.1015 10.482C41.1655 10.442 41.2495 10.422 41.3535 10.422H42.3195L40.0815 12.804C39.9735 12.94 39.8575 13.046 39.7335 13.122C39.8055 13.17 39.8695 13.226 39.9255 13.29C39.9855 13.35 40.0415 13.42 40.0935 13.5L42.4695 16.5H41.5155C41.4235 16.5 41.3435 16.486 41.2755 16.458C41.2115 16.426 41.1555 16.37 41.1075 16.29L39.1095 13.8C39.0495 13.716 38.9895 13.662 38.9295 13.638C38.8735 13.61 38.7855 13.596 38.6655 13.596H38.3595V16.5H37.2855V7.662H38.3595ZM48.3155 16.596C47.8355 16.596 47.4655 16.462 47.2055 16.194C46.9495 15.926 46.8215 15.54 46.8215 15.036V11.316H46.0895C46.0255 11.316 45.9715 11.298 45.9275 11.262C45.8835 11.222 45.8615 11.162 45.8615 11.082V10.656L46.8575 10.53L47.1035 8.652C47.1155 8.592 47.1415 8.544 47.1815 8.508C47.2255 8.468 47.2815 8.448 47.3495 8.448H47.8895V10.542H49.6475V11.316H47.8895V14.964C47.8895 15.22 47.9515 15.41 48.0755 15.534C48.1995 15.658 48.3595 15.72 48.5555 15.72C48.6675 15.72 48.7635 15.706 48.8435 15.678C48.9275 15.646 48.9995 15.612 49.0595 15.576C49.1195 15.54 49.1695 15.508 49.2095 15.48C49.2535 15.448 49.2915 15.432 49.3235 15.432C49.3795 15.432 49.4295 15.466 49.4735 15.534L49.7855 16.044C49.6015 16.216 49.3795 16.352 49.1195 16.452C48.8595 16.548 48.5915 16.596 48.3155 16.596ZM53.2771 10.326C53.7211 10.326 54.1211 10.4 54.4771 10.548C54.8331 10.696 55.1371 10.906 55.3891 11.178C55.6411 11.45 55.8331 11.78 55.9651 12.168C56.1011 12.552 56.1691 12.982 56.1691 13.458C56.1691 13.938 56.1011 14.37 55.9651 14.754C55.8331 15.138 55.6411 15.466 55.3891 15.738C55.1371 16.01 54.8331 16.22 54.4771 16.368C54.1211 16.512 53.7211 16.584 53.2771 16.584C52.8291 16.584 52.4251 16.512 52.0651 16.368C51.7091 16.22 51.4051 16.01 51.1531 15.738C50.9011 15.466 50.7071 15.138 50.5711 14.754C50.4391 14.37 50.3731 13.938 50.3731 13.458C50.3731 12.982 50.4391 12.552 50.5711 12.168C50.7071 11.78 50.9011 11.45 51.1531 11.178C51.4051 10.906 51.7091 10.696 52.0651 10.548C52.4251 10.4 52.8291 10.326 53.2771 10.326ZM53.2771 15.75C53.8771 15.75 54.3251 15.55 54.6211 15.15C54.9171 14.746 55.0651 14.184 55.0651 13.464C55.0651 12.74 54.9171 12.176 54.6211 11.772C54.3251 11.368 53.8771 11.166 53.2771 11.166C52.9731 11.166 52.7071 11.218 52.4791 11.322C52.2551 11.426 52.0671 11.576 51.9151 11.772C51.7671 11.968 51.6551 12.21 51.5791 12.498C51.5071 12.782 51.4711 13.104 51.4711 13.464C51.4711 14.184 51.6191 14.746 51.9151 15.15C52.2151 15.55 52.6691 15.75 53.2771 15.75ZM61.668 15.036C61.864 15.3 62.078 15.486 62.31 15.594C62.542 15.702 62.802 15.756 63.09 15.756C63.658 15.756 64.094 15.554 64.398 15.15C64.702 14.746 64.854 14.17 64.854 13.422C64.854 13.026 64.818 12.686 64.746 12.402C64.678 12.118 64.578 11.886 64.446 11.706C64.314 11.522 64.152 11.388 63.96 11.304C63.768 11.22 63.55 11.178 63.306 11.178C62.958 11.178 62.652 11.258 62.388 11.418C62.128 11.578 61.888 11.804 61.668 12.096V15.036ZM61.614 11.364C61.87 11.048 62.166 10.794 62.502 10.602C62.838 10.41 63.222 10.314 63.654 10.314C64.006 10.314 64.324 10.382 64.608 10.518C64.892 10.65 65.134 10.848 65.334 11.112C65.534 11.372 65.688 11.696 65.796 12.084C65.904 12.472 65.958 12.918 65.958 13.422C65.958 13.87 65.898 14.288 65.778 14.676C65.658 15.06 65.484 15.394 65.256 15.678C65.032 15.958 64.756 16.18 64.428 16.344C64.104 16.504 63.738 16.584 63.33 16.584C62.958 16.584 62.638 16.522 62.37 16.398C62.106 16.27 61.872 16.094 61.668 15.87V18.558H60.594V10.422H61.236C61.388 10.422 61.482 10.496 61.518 10.644L61.614 11.364ZM70.6146 13.764C70.1226 13.78 69.7026 13.82 69.3546 13.884C69.0106 13.944 68.7286 14.024 68.5086 14.124C68.2926 14.224 68.1346 14.342 68.0346 14.478C67.9386 14.614 67.8906 14.766 67.8906 14.934C67.8906 15.094 67.9166 15.232 67.9686 15.348C68.0206 15.464 68.0906 15.56 68.1786 15.636C68.2706 15.708 68.3766 15.762 68.4966 15.798C68.6206 15.83 68.7526 15.846 68.8926 15.846C69.0806 15.846 69.2526 15.828 69.4086 15.792C69.5646 15.752 69.7106 15.696 69.8466 15.624C69.9866 15.552 70.1186 15.466 70.2426 15.366C70.3706 15.266 70.4946 15.152 70.6146 15.024V13.764ZM67.1646 11.28C67.5006 10.956 67.8626 10.714 68.2506 10.554C68.6386 10.394 69.0686 10.314 69.5406 10.314C69.8806 10.314 70.1826 10.37 70.4466 10.482C70.7106 10.594 70.9326 10.75 71.1126 10.95C71.2926 11.15 71.4286 11.392 71.5206 11.676C71.6126 11.96 71.6586 12.272 71.6586 12.612V16.5H71.1846C71.0806 16.5 71.0006 16.484 70.9446 16.452C70.8886 16.416 70.8446 16.348 70.8126 16.248L70.6926 15.672C70.5326 15.82 70.3766 15.952 70.2246 16.068C70.0726 16.18 69.9126 16.276 69.7446 16.356C69.5766 16.432 69.3966 16.49 69.2046 16.53C69.0166 16.574 68.8066 16.596 68.5746 16.596C68.3386 16.596 68.1166 16.564 67.9086 16.5C67.7006 16.432 67.5186 16.332 67.3626 16.2C67.2106 16.068 67.0886 15.902 66.9966 15.702C66.9086 15.498 66.8646 15.258 66.8646 14.982C66.8646 14.742 66.9306 14.512 67.0626 14.292C67.1946 14.068 67.4086 13.87 67.7046 13.698C68.0006 13.526 68.3866 13.386 68.8626 13.278C69.3386 13.166 69.9226 13.102 70.6146 13.086V12.612C70.6146 12.14 70.5126 11.784 70.3086 11.544C70.1046 11.3 69.8066 11.178 69.4146 11.178C69.1506 11.178 68.9286 11.212 68.7486 11.28C68.5726 11.344 68.4186 11.418 68.2866 11.502C68.1586 11.582 68.0466 11.656 67.9506 11.724C67.8586 11.788 67.7666 11.82 67.6746 11.82C67.6026 11.82 67.5406 11.802 67.4886 11.766C67.4366 11.726 67.3926 11.678 67.3566 11.622L67.1646 11.28ZM75.4035 13.53C75.6195 13.53 75.8095 13.5 75.9735 13.44C76.1375 13.38 76.2755 13.296 76.3875 13.188C76.4995 13.08 76.5835 12.952 76.6395 12.804C76.6955 12.652 76.7235 12.486 76.7235 12.306C76.7235 11.934 76.6095 11.638 76.3815 11.418C76.1575 11.198 75.8315 11.088 75.4035 11.088C74.9715 11.088 74.6415 11.198 74.4135 11.418C74.1895 11.638 74.0775 11.934 74.0775 12.306C74.0775 12.486 74.1055 12.652 74.1615 12.804C74.2215 12.952 74.3075 13.08 74.4195 13.188C74.5315 13.296 74.6695 13.38 74.8335 13.44C74.9975 13.5 75.1875 13.53 75.4035 13.53ZM77.3295 16.83C77.3295 16.682 77.2875 16.562 77.2035 16.47C77.1195 16.378 77.0055 16.306 76.8615 16.254C76.7215 16.202 76.5575 16.166 76.3695 16.146C76.1815 16.122 75.9815 16.104 75.7695 16.092C75.5615 16.08 75.3495 16.068 75.1335 16.056C74.9175 16.044 74.7095 16.024 74.5095 15.996C74.2855 16.1 74.1015 16.232 73.9575 16.392C73.8175 16.548 73.7475 16.732 73.7475 16.944C73.7475 17.08 73.7815 17.206 73.8495 17.322C73.9215 17.442 74.0295 17.544 74.1735 17.628C74.3175 17.716 74.4975 17.784 74.7135 17.832C74.9335 17.884 75.1915 17.91 75.4875 17.91C75.7755 17.91 76.0335 17.884 76.2615 17.832C76.4895 17.78 76.6815 17.706 76.8375 17.61C76.9975 17.514 77.1195 17.4 77.2035 17.268C77.2875 17.136 77.3295 16.99 77.3295 16.83ZM78.4155 10.662V11.058C78.4155 11.19 78.3315 11.274 78.1635 11.31L77.4735 11.4C77.6095 11.664 77.6775 11.956 77.6775 12.276C77.6775 12.572 77.6195 12.842 77.5035 13.086C77.3915 13.326 77.2355 13.532 77.0355 13.704C76.8355 13.876 76.5955 14.008 76.3155 14.1C76.0355 14.192 75.7315 14.238 75.4035 14.238C75.1195 14.238 74.8515 14.204 74.5995 14.136C74.4715 14.216 74.3735 14.302 74.3055 14.394C74.2375 14.482 74.2035 14.572 74.2035 14.664C74.2035 14.808 74.2615 14.918 74.3775 14.994C74.4975 15.066 74.6535 15.118 74.8455 15.15C75.0375 15.182 75.2555 15.202 75.4995 15.21C75.7475 15.218 75.9995 15.232 76.2555 15.252C76.5155 15.268 76.7675 15.298 77.0115 15.342C77.2595 15.386 77.4795 15.458 77.6715 15.558C77.8635 15.658 78.0175 15.796 78.1335 15.972C78.2535 16.148 78.3135 16.376 78.3135 16.656C78.3135 16.916 78.2475 17.168 78.1155 17.412C77.9875 17.656 77.8015 17.872 77.5575 18.06C77.3135 18.252 77.0135 18.404 76.6575 18.516C76.3055 18.632 75.9075 18.69 75.4635 18.69C75.0195 18.69 74.6315 18.646 74.2995 18.558C73.9675 18.47 73.6915 18.352 73.4715 18.204C73.2515 18.056 73.0855 17.884 72.9735 17.688C72.8655 17.496 72.8115 17.294 72.8115 17.082C72.8115 16.782 72.9055 16.528 73.0935 16.32C73.2815 16.112 73.5395 15.946 73.8675 15.822C73.6875 15.742 73.5435 15.636 73.4355 15.504C73.3315 15.368 73.2795 15.186 73.2795 14.958C73.2795 14.87 73.2955 14.78 73.3275 14.688C73.3595 14.592 73.4075 14.498 73.4715 14.406C73.5395 14.31 73.6215 14.22 73.7175 14.136C73.8135 14.052 73.9255 13.978 74.0535 13.914C73.7535 13.746 73.5195 13.524 73.3515 13.248C73.1835 12.968 73.0995 12.644 73.0995 12.276C73.0995 11.98 73.1555 11.712 73.2675 11.472C73.3835 11.228 73.5435 11.022 73.7475 10.854C73.9515 10.682 74.1935 10.55 74.4735 10.458C74.7575 10.366 75.0675 10.32 75.4035 10.32C75.6675 10.32 75.9135 10.35 76.1415 10.41C76.3695 10.466 76.5775 10.55 76.7655 10.662H78.4155ZM83.4941 12.798C83.4941 12.55 83.4581 12.324 83.3861 12.12C83.3181 11.912 83.2161 11.734 83.0801 11.586C82.9481 11.434 82.7861 11.318 82.5941 11.238C82.4021 11.154 82.1841 11.112 81.9401 11.112C81.4281 11.112 81.0221 11.262 80.7221 11.562C80.4261 11.858 80.2421 12.27 80.1701 12.798H83.4941ZM84.3581 15.648C84.2261 15.808 84.0681 15.948 83.8841 16.068C83.7001 16.184 83.5021 16.28 83.2901 16.356C83.0821 16.432 82.8661 16.488 82.6421 16.524C82.4181 16.564 82.1961 16.584 81.9761 16.584C81.5561 16.584 81.1681 16.514 80.8121 16.374C80.4601 16.23 80.1541 16.022 79.8941 15.75C79.6381 15.474 79.4381 15.134 79.2941 14.73C79.1501 14.326 79.0781 13.862 79.0781 13.338C79.0781 12.914 79.1421 12.518 79.2701 12.15C79.4021 11.782 79.5901 11.464 79.8341 11.196C80.0781 10.924 80.3761 10.712 80.7281 10.56C81.0801 10.404 81.4761 10.326 81.9161 10.326C82.2801 10.326 82.6161 10.388 82.9241 10.512C83.2361 10.632 83.5041 10.808 83.7281 11.04C83.9561 11.268 84.1341 11.552 84.2621 11.892C84.3901 12.228 84.4541 12.612 84.4541 13.044C84.4541 13.212 84.4361 13.324 84.4001 13.38C84.3641 13.436 84.2961 13.464 84.1961 13.464H80.1341C80.1461 13.848 80.1981 14.182 80.2901 14.466C80.3861 14.75 80.5181 14.988 80.6861 15.18C80.8541 15.368 81.0541 15.51 81.2861 15.606C81.5181 15.698 81.7781 15.744 82.0661 15.744C82.3341 15.744 82.5641 15.714 82.7561 15.654C82.9521 15.59 83.1201 15.522 83.2601 15.45C83.4001 15.378 83.5161 15.312 83.6081 15.252C83.7041 15.188 83.7861 15.156 83.8541 15.156C83.9421 15.156 84.0101 15.19 84.0581 15.258L84.3581 15.648Z" fill="#021D2D"/>
</svg>
