<svg width="12" height="12" viewBox="0 0 12 12" fill="none" xmlns="http://www.w3.org/2000/svg">
<path d="M10.125 1.5H9V0.28125C9 0.140625 8.85938 0 8.71875 0H8.53125C8.36719 0 8.25 0.140625 8.25 0.28125V1.5L3.75 1.5V0.28125C3.75 0.140625 3.60938 0 3.46875 0H3.28125C3.11719 0 3 0.140625 3 0.28125L3 1.5H1.875C1.24219 1.5 0.75 2.01563 0.75 2.625L0.75 10.875C0.75 11.5078 1.24219 12 1.875 12L10.125 12C10.7344 12 11.25 11.5078 11.25 10.875L11.25 2.625C11.25 2.01563 10.7344 1.5 10.125 1.5ZM1.875 2.25L10.125 2.25C10.3125 2.25 10.5 2.4375 10.5 2.625V3.75L1.5 3.75L1.5 2.625C1.5 2.4375 1.66406 2.25 1.875 2.25ZM10.125 11.25L1.875 11.25C1.66406 11.25 1.5 11.0859 1.5 10.875L1.5 4.5L10.5 4.5L10.5 10.875C10.5 11.0859 10.3125 11.25 10.125 11.25Z" fill="#021D2D"/>
</svg>
