<svg width="12" height="12" viewBox="0 0 12 12" fill="none" xmlns="http://www.w3.org/2000/svg">
<path d="M6 0.1875C2.78906 0.1875 0.1875 2.78906 0.1875 6C0.1875 9.21094 2.78906 11.8125 6 11.8125C9.21094 11.8125 11.8125 9.21094 11.8125 6C11.8125 2.78906 9.21094 0.1875 6 0.1875ZM11.0625 6C11.0625 8.78906 8.78906 11.0625 6 11.0625C3.21094 11.0625 0.9375 8.8125 0.9375 6C0.9375 3.23438 3.1875 0.9375 6 0.9375C8.76562 0.9375 11.0625 3.21094 11.0625 6ZM7.57031 8.08594C7.6875 8.17969 7.875 8.13281 7.94531 8.01563L8.15625 7.75781C8.25 7.61719 8.20312 7.45313 8.08594 7.35938L6.44531 6.16406V2.71875C6.44531 2.57813 6.30469 2.4375 6.16406 2.4375L5.83594 2.4375C5.67187 2.4375 5.55469 2.57813 5.55469 2.71875V6.46875C5.55469 6.5625 5.57812 6.63281 5.64844 6.70313L7.57031 8.08594Z" fill="#021D2D"/>
</svg>
