<svg width="10" height="13" viewBox="0 0 10 13" fill="none" xmlns="http://www.w3.org/2000/svg">
<path d="M5 2.25C3.75781 2.25 2.75 3.28125 2.75 4.5C2.75 5.74219 3.75781 6.75 5 6.75C6.21875 6.75 7.25 5.74219 7.25 4.5C7.25 3.28125 6.21875 2.25 5 2.25ZM5 6C4.15625 6 3.5 5.34375 3.5 4.5C3.5 3.67969 4.15625 3 5 3C5.82031 3 6.5 3.67969 6.5 4.5C6.5 5.34375 5.82031 6 5 6ZM5 0C2.49219 0 0.5 2.01563 0.5 4.5C0.5 6.32812 1.10937 6.84375 4.53125 11.7656C4.74219 12.0938 5.23437 12.0938 5.44531 11.7656C8.86719 6.84375 9.5 6.32813 9.5 4.5C9.5 2.01563 7.48438 0 5 0ZM5 11.1094C1.71875 6.39844 1.25 6.02344 1.25 4.5C1.25 3.51563 1.625 2.57813 2.32812 1.85156C3.05469 1.14844 3.99219 0.75 5 0.75C5.98438 0.75 6.92188 1.14844 7.64844 1.85156C8.35156 2.57813 8.75 3.51563 8.75 4.5C8.75 6.02344 8.25781 6.39844 5 11.1094Z" fill="#021D2D"/>
</svg>
