<svg width="30" height="30" viewBox="0 0 30 30" fill="none" xmlns="http://www.w3.org/2000/svg">
<rect width="30" height="30" fill="#FFEFC1"/>
<path d="M23.0391 11.2478L21.2618 8.40405C21.0977 8.15796 20.8243 7.9939 20.5235 7.9939H9.47661C9.17583 7.9939 8.87505 8.15796 8.71099 8.40405L6.96099 11.2478C6.14067 12.533 6.68755 14.283 8.00005 14.8298V21.0369C8.00005 21.5837 8.38286 21.9939 8.87505 21.9939H21.125C21.5899 21.9939 22 21.5837 22 21.0369V14.8298C23.3125 14.283 23.8321 12.533 23.0391 11.2478ZM20.6875 20.6814H9.31255V18.0564H20.6875V20.6814ZM20.6602 16.7439H9.31255V14.9939C9.9688 14.8845 10.543 14.5564 10.9532 14.0916C11.4454 14.6384 12.1563 14.9939 12.9766 14.9939C13.7696 14.9939 14.4805 14.6384 14.9727 14.0916C15.4649 14.6384 16.2032 14.9939 16.9961 14.9939C17.8165 14.9939 18.5274 14.6384 19.0196 14.0916C19.4297 14.5564 20.004 14.8845 20.6602 14.9939V16.7439ZM21.9727 13.1072C21.8907 13.2986 21.6719 13.6267 21.2344 13.6814C21.1797 13.6814 21.0977 13.7087 21.043 13.7087C20.6329 13.7087 20.2774 13.5173 20.004 13.2166L19.0196 12.1228L18.0625 13.2166C17.7891 13.5173 17.4063 13.6814 16.9961 13.6814C16.6133 13.6814 16.2305 13.5173 15.9571 13.2166L15 12.1228L14.0157 13.2166C13.7422 13.5173 13.3594 13.6814 12.9766 13.6814C12.5665 13.6814 12.211 13.5173 11.9375 13.2166L10.9532 12.1228L9.9688 13.2166C9.69536 13.5173 9.33989 13.6814 8.92974 13.6814C8.87505 13.6814 8.79302 13.6814 8.73833 13.6814C8.30083 13.6267 8.08208 13.2986 8.00005 13.1072C7.86333 12.8064 7.80864 12.3689 8.05474 11.9587L9.69536 9.3064H20.2774L21.918 11.9587C22.1641 12.3689 22.1094 12.8064 21.9727 13.1072Z" fill="#F0B000"/>
</svg>
