<svg width="32" height="32" viewBox="0 0 32 32" fill="none" xmlns="http://www.w3.org/2000/svg">
<path d="M20 18.5C19.2891 18.5 18.6602 18.7734 18.168 19.2383L15.4883 17.543C15.6523 17.0508 15.6523 16.4766 15.4883 15.9844L18.168 14.2891C18.6602 14.7266 19.2891 15 20 15C21.4492 15 22.625 13.8242 22.625 12.375C22.625 10.9258 21.4492 9.75 20 9.75C18.5508 9.75 17.375 10.9258 17.375 12.375C17.375 12.6484 17.4023 12.9219 17.4844 13.168L14.8047 14.8633C14.3125 14.3984 13.6836 14.125 13 14.125C11.5508 14.125 10.375 15.3008 10.375 16.75C10.375 18.1992 11.5508 19.375 13 19.375C13.6836 19.375 14.3125 19.1016 14.8047 18.6641L17.4844 20.3594C17.4023 20.6055 17.375 20.8789 17.375 21.125C17.375 22.5742 18.5508 23.75 20 23.75C21.4492 23.75 22.625 22.5742 22.625 21.125C22.625 19.6758 21.4492 18.5 20 18.5ZM20 11.0625C20.7109 11.0625 21.3125 11.6641 21.3125 12.375C21.3125 13.1133 20.7109 13.6875 20 13.6875C19.2617 13.6875 18.6875 13.1133 18.6875 12.375C18.6875 11.6641 19.2617 11.0625 20 11.0625ZM13 18.0625C12.2617 18.0625 11.6875 17.4883 11.6875 16.75C11.6875 16.0391 12.2617 15.4375 13 15.4375C13.7109 15.4375 14.3125 16.0391 14.3125 16.75C14.3125 17.4883 13.7109 18.0625 13 18.0625ZM20 22.4375C19.2617 22.4375 18.6875 21.8633 18.6875 21.125C18.6875 20.4141 19.2617 19.8125 20 19.8125C20.7109 19.8125 21.3125 20.4141 21.3125 21.125C21.3125 21.8633 20.7109 22.4375 20 22.4375Z" fill="#021D2D"/>
<rect x="0.5" y="0.5" width="31" height="31" rx="2.5" stroke="#303A3F"/>
</svg>
