<svg width="12" height="12" viewBox="0 0 12 12" fill="none" xmlns="http://www.w3.org/2000/svg">
<path d="M0.46875 0.5625C0.304687 0.5625 0.1875 0.703125 0.1875 0.84375L0.1875 4.21875C0.1875 4.38281 0.304687 4.5 0.46875 4.5L3.84375 4.5C3.98437 4.5 4.125 4.38281 4.125 4.21875V3.98438C4.125 3.84375 3.98437 3.70313 3.84375 3.70313L1.52344 3.70312C2.36719 2.10938 4.05469 0.984375 6 0.984375C8.76562 0.984375 11.0156 3.25781 11.0156 6C11.0156 8.78906 8.74219 11.0156 6 11.0156C4.6875 11.0156 3.51562 10.5469 2.625 9.75C2.53125 9.63281 2.34375 9.65625 2.25 9.75L2.08594 9.91406C1.96875 10.0312 1.96875 10.2188 2.08594 10.3359C3.11719 11.25 4.5 11.8125 6 11.8125C9.1875 11.8125 11.7891 9.23438 11.8125 6.02344C11.8125 2.83594 9.21094 0.210938 6 0.210938C3.86719 0.1875 1.99219 1.35938 0.984375 3.07031L0.984375 0.84375C0.984375 0.703125 0.84375 0.5625 0.703125 0.5625H0.46875ZM7.99219 7.96875L8.10937 7.80469C8.20312 7.6875 8.17969 7.5 8.03906 7.42969L6.375 6.1875V2.71875C6.375 2.57813 6.23437 2.4375 6.09375 2.4375H5.90625C5.74219 2.4375 5.625 2.57813 5.625 2.71875V6.58594L7.59375 8.01563C7.73437 8.10938 7.89844 8.08594 7.99219 7.96875Z" fill="#A3A3A3"/>
</svg>
